<?xml version="1.0" encoding="UTF-8"?>
<svg width="200px" height="200px" style="animation-play-state:paused;background-attachment:initial;background-clip:initial;background-color:rgb(255, 255, 255);background-image:initial;background-origin:initial;background-position-x:initial;background-position-y:initial;background-repeat-x:initial;background-repeat-y:initial;background-size:initial;height:100%;width:100%" version="1.1" viewBox="0 0 100 100" xml:space="preserve" xmlns="http://www.w3.org/2000/svg"><g class="ldl-scale" style="animation-play-state:paused;transform-origin:50% 50%;transform:rotate(0deg) scale(0.8, 0.8)"><path d="M56.1 48.3c2.9-1.5 4.6-4.1 4.6-6.9v-3h1.8c.9 0 1.7-.8 1.7-1.7 0-.9-.8-1.7-1.7-1.7H37.9c-.9 0-1.7.8-1.7 1.7 0 .9.8 1.7 1.7 1.7h1.8v3c0 2.8 1.7 5.4 4.6 6.9.8.4 1.3 1 1.3 1.6v.6c0 .6-.5 1.2-1.3 1.6-2.9 1.5-4.6 4.1-4.6 6.9v3h-1.8c-.9 0-1.7.8-1.7 1.7s.8 1.7 1.7 1.7h24.6c.9 0 1.7-.8 1.7-1.7s-.8-1.7-1.7-1.7h-1.8v-3c0-2.8-1.7-5.4-4.6-6.9-.8-.4-1.3-1-1.3-1.6v-.6c.1-.6.5-1.2 1.3-1.6zm-1.6 6.9c1.8.9 2.8 2.4 2.8 3.9v3H43.1v-3c0-1.5 1.1-3 2.8-3.9 1.9-1 3.1-2.8 3.1-4.6V50c0-1.9-1.1-3.6-3.1-4.6-1.8-.9-2.8-2.4-2.8-3.9v-3h14.3v3c0 1.5-1.1 3-2.8 3.9-1.9 1-3.1 2.8-3.1 4.6v.6c0 1.8 1.1 3.6 3 4.6z" fill="#666" style="animation-play-state:paused"/>
<circle cx="50.2" cy="16.3" r="4.8" fill="#333" style="animation-play-state:paused"/>
<circle transform="rotate(-30 33.38 20.732)" cx="33.4" cy="20.7" r="4.8" fill="#333" style="animation-play-state:paused"/>
<circle transform="rotate(-60 20.973 32.963)" cx="21" cy="33" r="4.8" fill="#333" style="animation-play-state:paused"/>
<circle cx="16.3" cy="49.8" r="4.8" fill="#333" style="animation-play-state:paused"/>
<circle transform="rotate(-30 20.728 66.619)" cx="20.7" cy="66.6" r="4.8" fill="#333" style="animation-play-state:paused"/>
<circle transform="rotate(-60 32.961 79.03)" cx="33" cy="79" r="4.8" fill="#333" style="animation-play-state:paused"/>
<circle cx="49.8" cy="83.7" r="4.8" fill="#333" style="animation-play-state:paused"/>
<circle transform="rotate(-30 66.614 79.271)" cx="66.6" cy="79.3" r="4.8" fill="#333" style="animation-play-state:paused"/>
<circle transform="rotate(-60 79.028 67.04)" cx="79" cy="67" r="4.8" fill="#333" style="animation-play-state:paused"/>
<circle cx="83.7" cy="50.2" r="4.8" fill="#333" style="animation-play-state:paused"/>
<circle transform="rotate(-30 79.267 33.384)" cx="79.3" cy="33.4" r="4.8" fill="#333" style="animation-play-state:paused"/>
<circle transform="rotate(-60 67.04 20.974)" cx="67" cy="21" r="4.8" fill="#333" style="animation-play-state:paused"/>
<metadata style="animation-play-state:paused" xmlnsD="https://loading.io/stock/"><dName style="animation-play-state:paused">wait</dName>
<dTags style="animation-play-state:paused">wait,spinner,hourglass,loader,preloader,ajax spinner,waiting icon,loading icon,loading gif</dTags>
<dLicense style="animation-play-state:paused">by</dLicense>
<dSlug style="animation-play-state:paused">6dzffi</dSlug></metadata></g></svg>
