<svg width="32" height="32" viewBox="0 0 32 32" fill="none" xmlns="http://www.w3.org/2000/svg">
<path d="M27.9998 14.6667H7.02653L14.1065 7.60008C14.6265 7.08008 14.6265 6.24008 14.1065 5.72008C13.5865 5.20008 12.7465 5.20008 12.2265 5.72008L3.19987 14.7201C2.87987 15.0401 2.71986 15.4667 2.6932 15.8934C2.6932 15.9334 2.6665 15.9601 2.6665 16.0001C2.6665 16.0401 2.67986 16.0667 2.6932 16.1067C2.71986 16.5334 2.87987 16.9601 3.19987 17.2801L12.2265 26.2801C12.4931 26.5334 12.8265 26.6667 13.1732 26.6667C13.5198 26.6667 13.8532 26.5334 14.1199 26.2801C14.6399 25.7601 14.6399 24.9201 14.1199 24.4001L7.03988 17.3467H28.0132C28.7465 17.3467 29.3465 16.7467 29.3465 16.0134C29.3465 15.2801 28.7465 14.6801 28.0132 14.6801L27.9998 14.6667Z" fill="#676A71"/>
</svg>
