<svg width="32" height="32" viewBox="0 0 32 32" fill="none" xmlns="http://www.w3.org/2000/svg">
<path d="M28.8266 14.7199C28.6133 14.5066 24.0133 10.3066 22.6 9.02657C22.0533 8.53324 21.2133 8.57325 20.72 9.11991C20.2266 9.66658 20.2666 10.5066 20.8133 10.9999C22.04 12.1199 23.5866 13.5332 24.8266 14.6666H7.25328C8.90661 13.0932 10.8666 11.2132 10.8666 11.2132C11.3999 10.7066 11.4133 9.86657 10.9066 9.33323C10.3999 8.7999 9.55992 8.78657 9.02659 9.29323C7.29326 10.9466 3.25327 14.8132 3.15993 14.9066C2.87993 15.1866 2.71995 15.5466 2.67995 15.9332C2.63995 16.4266 2.81329 16.9066 3.18663 17.2666C3.38663 17.4666 7.81328 21.5066 9.17328 22.7332C9.42661 22.9599 9.74659 23.0799 10.0666 23.0799C10.4266 23.0799 10.7866 22.9332 11.0533 22.6399C11.5466 22.0932 11.5066 21.2532 10.9599 20.7599C9.81327 19.7199 8.37326 18.3999 7.19993 17.3332H24.7599C23.0266 18.9866 20.9066 21.0132 20.9066 21.0132C20.3733 21.5199 20.3599 22.3599 20.8666 22.8932C21.1333 23.1732 21.4799 23.3066 21.8266 23.3066C22.1599 23.3066 22.4933 23.1866 22.7466 22.9332C24.5466 21.2132 28.76 17.1866 28.8533 17.0932C29.4266 16.5066 29.5733 15.4666 28.8133 14.7199H28.8266Z" fill="#676A71"/>
</svg>
