<svg width="32" height="32" viewBox="0 0 32 32" fill="none" xmlns="http://www.w3.org/2000/svg">
<path d="M26.6265 19.8132L25.8665 14.2665C25.2398 9.63985 21.6665 6.05319 17.3198 5.43986V4.01327C17.3198 3.27993 16.7198 2.67993 15.9865 2.67993C15.2532 2.67993 14.6532 3.27993 14.6532 4.01327V5.43986C10.3065 6.06653 6.75983 9.63985 6.11983 14.2665L5.35984 19.8132C5.15984 21.2532 5.58649 22.6933 6.53316 23.7599C7.42649 24.7733 8.69317 25.3599 10.0265 25.3599H11.4265C11.7198 27.5865 13.6132 29.3199 15.9198 29.3199C18.2265 29.3199 20.1198 27.5865 20.4132 25.3599H21.9198C23.2532 25.3599 24.5198 24.7733 25.4132 23.7599C26.3598 22.6799 26.7865 21.2399 26.5865 19.8132H26.6265ZM15.9465 26.6666C15.1065 26.6666 14.4132 26.1199 14.1598 25.3732H17.7332C17.4798 26.1199 16.7865 26.6666 15.9465 26.6666ZM23.4398 22.0133C23.0532 22.4533 22.5198 22.7065 21.9465 22.7065H10.0398C9.4665 22.7065 8.9465 22.4666 8.5465 22.0133C8.11984 21.5199 7.91983 20.8399 8.01316 20.1733L8.77317 14.6265C9.27984 10.8532 12.3865 7.99992 15.9998 7.99992C19.6132 7.99992 22.7065 10.8532 23.2265 14.6265L23.9865 20.1733C24.0798 20.8399 23.8798 21.5199 23.4532 22.0133H23.4398Z" fill="#676A71"/>
</svg>
