<svg width="32" height="32" viewBox="0 0 32 32" fill="none" xmlns="http://www.w3.org/2000/svg">
<path d="M14.8003 23.4799C14.987 23.6666 15.2137 23.7865 15.4537 23.8665C15.627 23.9465 15.8137 23.9999 16.0137 23.9999C16.2137 23.9999 16.4003 23.9465 16.5603 23.8665C16.8003 23.7865 17.027 23.6666 17.2137 23.4799L24.2137 16.4666C24.7337 15.9466 24.7337 15.1066 24.2137 14.5866C23.6937 14.0666 22.8537 14.0666 22.3337 14.5866L17.3603 19.5866V4.01326C17.3603 3.27993 16.7737 2.67993 16.027 2.67993C15.2803 2.67993 14.6937 3.27993 14.6937 4.01326V19.5866L9.70701 14.5999C9.18701 14.0799 8.34701 14.0799 7.82701 14.5999C7.30701 15.1199 7.30701 15.9599 7.82701 16.4799L14.827 23.4932L14.8003 23.4799Z" fill="#676A71"/>
<path d="M25.3335 24C24.6002 24 24.0002 24.6 24.0002 25.3333C24.0002 26.2133 23.2002 26.68 22.4535 26.68H9.52016C8.76016 26.68 8.00016 26.2133 8.00016 25.3333C8.00016 24.6 7.40016 24 6.66683 24C5.9335 24 5.3335 24.6 5.3335 25.3333C5.3335 27.5867 7.1735 29.3467 9.52016 29.3467H22.4535C24.8135 29.3467 26.6668 27.5867 26.6668 25.3333C26.6668 24.6 26.0668 24 25.3335 24Z" fill="#676A71"/>
</svg>
