<svg width="32" height="32" viewBox="0 0 32 32" fill="none" xmlns="http://www.w3.org/2000/svg">
<path d="M28.0802 12.6401C25.4535 9.49341 21.2402 5.73341 16.0135 5.73341C15.0135 5.73341 13.9868 5.88007 12.9735 6.16007C12.2668 6.36007 11.8535 7.09341 12.0535 7.80007C12.2535 8.50674 12.9869 8.92008 13.6935 8.72008C14.4669 8.50674 15.2535 8.38674 16.0135 8.38674C20.4135 8.38674 24.1735 12.1067 26.0269 14.3334C26.8669 15.3467 26.8802 16.7734 26.0669 17.7867C25.7469 18.1867 25.3869 18.6001 24.9869 19.0267C24.4802 19.5601 24.5069 20.4134 25.0402 20.9067C25.2935 21.1467 25.6269 21.2667 25.9602 21.2667C26.3202 21.2667 26.6668 21.1201 26.9335 20.8534C27.3868 20.3734 27.7869 19.9067 28.1469 19.4667C29.7602 17.4801 29.7335 14.6001 28.0935 12.6267L28.0802 12.6401Z" fill="#676A71"/>
<path d="M10.7335 8.85341C10.6935 8.74674 10.6668 8.64008 10.6002 8.53341C10.4268 8.28008 10.1868 8.13341 9.93351 8.04008L7.61352 5.72008C7.09352 5.20008 6.24018 5.20008 5.73352 5.72008C5.21352 6.24008 5.21352 7.08008 5.73352 7.60008L7.36018 9.22674C6.18685 10.1734 5.05352 11.2934 3.94685 12.6001C2.28019 14.5734 2.22685 17.3601 3.81351 19.3867C5.82685 21.9467 10.0802 26.2534 15.9602 26.2534C18.1868 26.2534 20.3735 25.6134 22.4935 24.4001L24.3602 26.2801C24.6269 26.5467 24.9602 26.6667 25.3068 26.6667C25.6535 26.6667 25.9868 26.5334 26.2535 26.2801C26.7735 25.7601 26.7735 24.9201 26.2535 24.4001L10.7335 8.85341ZM13.4269 15.3334L16.6668 18.5734C16.4535 18.6267 16.2268 18.6667 16.0002 18.6667C14.5335 18.6667 13.3335 17.4667 13.3335 16.0001C13.3335 15.7734 13.3735 15.5467 13.4269 15.3334ZM15.9469 23.6001C11.2002 23.6001 7.61351 19.9334 5.89351 17.7467C5.09351 16.7334 5.12018 15.3201 5.96018 14.3334C7.01351 13.0801 8.10684 12.0134 9.22684 11.1467L11.4135 13.3334C10.9335 14.1467 10.6535 15.0534 10.6535 16.0134C10.6535 18.9601 13.0402 21.3467 15.9869 21.3467C16.9335 21.3467 17.8535 21.0667 18.6535 20.6001L20.5069 22.4667C19.0002 23.2267 17.4668 23.6134 15.9335 23.6134L15.9469 23.6001Z" fill="#676A71"/>
</svg>
