<svg width="32" height="32" viewBox="0 0 32 32" fill="none" xmlns="http://www.w3.org/2000/svg">
<path d="M2.65344 8.63989C2.64011 7.39989 3.1068 6.22652 3.97347 5.34652C4.8268 4.47985 5.96012 4.01318 7.16012 4.01318H24.9735C26.1068 4.01318 27.1601 4.43991 27.9601 5.23991C28.8268 6.10658 29.3201 7.35991 29.3068 8.65324C29.3068 9.97324 28.7201 11.2265 27.7334 12.0932L20.8668 18.2C20.6001 18.44 20.3068 19.1332 20.3068 19.7465V24.04C20.3068 24.9333 19.8268 25.7732 19.0535 26.2398L18.8535 26.3466L15.3601 27.7198C14.9868 27.9198 14.5734 28.0266 14.1601 28.0266C13.7334 28.0266 13.3068 27.9199 12.9068 27.6933C12.0934 27.2399 11.6001 26.3732 11.6001 25.4399V19.4932C11.6001 19.1866 11.2934 18.5732 10.8134 18.1466L4.13346 11.9732C3.20013 11.1332 2.65347 9.91989 2.64014 8.63989H2.65344ZM17.6801 23.9332L17.6401 19.7332C17.6401 18.5998 18.0934 17.0666 19.1068 16.1866L25.9735 10.0799C26.4001 9.70658 26.6401 9.18655 26.6401 8.62655C26.6401 8.03988 26.4268 7.47986 26.0668 7.10653C25.8534 6.89319 25.5068 6.65324 24.9735 6.65324H7.17346C6.68013 6.66657 6.21345 6.86655 5.86678 7.21322C5.50678 7.58655 5.30678 8.06651 5.32011 8.58651V8.62655C5.32011 9.14655 5.56011 9.65325 5.94678 9.99992L12.6268 16.1733C13.3868 16.8666 14.2935 18.1466 14.2935 19.4932V25.4399" fill="#676A71"/>
</svg>
