<svg width="32" height="32" viewBox="0 0 32 32" fill="none" xmlns="http://www.w3.org/2000/svg">
<path d="M16 18.6533C14.9867 18.6533 14.1733 19.4666 14.1733 20.48C14.1733 21.4933 14.9867 22.3066 16 22.3066C17.0133 22.3066 17.8267 21.4933 17.8267 20.48C17.8267 19.4666 17.0133 18.6533 16 18.6533Z" fill="#676A71"/>
<path d="M21.6002 12.0001H21.3335V8.00008C21.3335 5.05341 18.9468 2.66675 16.0002 2.66675C13.0535 2.66675 10.6668 5.05341 10.6668 8.00008V12.0001H10.4001C7.60015 12.0001 5.3335 14.2801 5.3335 17.0667V24.2534C5.3335 27.0534 7.61348 29.3201 10.4001 29.3201H21.5868C24.3868 29.3201 26.6535 27.0401 26.6535 24.2534V17.0667C26.6535 14.2667 24.3735 12.0001 21.5868 12.0001H21.6002ZM13.3335 8.00008C13.3335 6.53341 14.5335 5.33341 16.0002 5.33341C17.4668 5.33341 18.6668 6.53341 18.6668 8.00008V12.0001H13.3335V8.00008ZM24.0002 24.2668C24.0002 25.5868 22.9202 26.6667 21.6002 26.6667H10.4135C9.09349 26.6667 8.01351 25.5868 8.01351 24.2668V17.0801C8.01351 15.7601 9.09349 14.6801 10.4135 14.6801H21.6002C22.9202 14.6801 24.0002 15.7601 24.0002 17.0801V24.2668Z" fill="#676A71"/>
</svg>
