<svg width="32" height="32" viewBox="0 0 32 32" fill="none" xmlns="http://www.w3.org/2000/svg">
<path d="M18.6667 20C17.9333 20 17.3333 20.6 17.3333 21.3333V22.6667C17.3333 24.1067 16.4133 25.3333 15.3333 25.3333H8.66667C7.58667 25.3333 6.66667 24.1067 6.66667 22.6667V9.33333C6.66667 7.89333 7.58667 6.66667 8.66667 6.66667H15.3333C16.4133 6.66667 17.3333 7.89333 17.3333 9.33333V10.6667C17.3333 11.4 17.9333 12 18.6667 12C19.4 12 20 11.4 20 10.6667V9.33333C20 6.38667 17.9067 4 15.3333 4H8.66667C6.09333 4 4 6.38667 4 9.33333V22.6667C4 25.6133 6.09333 28 8.66667 28H15.3333C17.9067 28 20 25.6133 20 22.6667V21.3333C20 20.6 19.4 20 18.6667 20Z" fill="#676A71"/>
<path d="M28.0002 15.9999C28.0002 15.8133 27.9602 15.6266 27.8802 15.4666C27.8002 15.2532 27.6935 15.0666 27.5335 14.9066L23.5202 10.9066C23.0002 10.3866 22.1602 10.3866 21.6402 10.9066C21.1202 11.4266 21.1202 12.2666 21.6402 12.7866L23.5202 14.6533H10.6668C9.9335 14.6533 9.3335 15.2533 9.3335 15.9866C9.3335 16.7199 9.9335 17.3199 10.6668 17.3199H23.5202L21.6535 19.1866C21.1335 19.7065 21.1335 20.5466 21.6535 21.0666C21.9201 21.3333 22.2535 21.4532 22.6002 21.4532C22.9468 21.4532 23.2802 21.3199 23.5468 21.0666L27.5468 17.0799C27.7068 16.9199 27.8268 16.7199 27.8935 16.5199C27.9602 16.3599 28.0135 16.1733 28.0135 15.9866L28.0002 15.9999Z" fill="#676A71"/>
</svg>
