<svg width="32" height="32" viewBox="0 0 32 32" fill="none" xmlns="http://www.w3.org/2000/svg">
<path d="M22.6667 5.33341V4.00008C22.6667 3.26675 22.0667 2.66675 21.3333 2.66675C20.6 2.66675 20 3.26675 20 4.00008V5.33341H12V4.00008C12 3.26675 11.4 2.66675 10.6667 2.66675C9.93333 2.66675 9.33333 3.26675 9.33333 4.00008V5.33341C6.38667 5.33341 4 7.72008 4 10.6667V22.6667C4 25.6134 6.38667 28.0001 9.33333 28.0001H22.6667C25.6133 28.0001 28 25.6134 28 22.6667V10.6667C28 7.72008 25.6133 5.33341 22.6667 5.33341ZM25.3333 22.6667C25.3333 24.1334 24.1333 25.3334 22.6667 25.3334H9.33333C7.86667 25.3334 6.66667 24.1334 6.66667 22.6667V10.6667C6.66667 9.20008 7.86667 8.00008 9.33333 8.00008V9.33342C9.33333 10.0667 9.93333 10.6667 10.6667 10.6667C11.4 10.6667 12 10.0667 12 9.33342V8.00008H20V9.33342C20 10.0667 20.6 10.6667 21.3333 10.6667C22.0667 10.6667 22.6667 10.0667 22.6667 9.33342V8.00008C24.1333 8.00008 25.3333 9.20008 25.3333 10.6667V22.6667Z" fill="#676A71"/>
<path d="M12.9467 15.0667C12.4533 14.5734 11.5467 14.5734 11.0533 15.0667C10.9333 15.1867 10.84 15.3334 10.7733 15.4934C10.7067 15.6667 10.6667 15.8401 10.6667 16.0134C10.6667 16.1867 10.7067 16.3601 10.7733 16.5201C10.84 16.6801 10.9333 16.8267 11.0533 16.9467C11.3067 17.2001 11.6533 17.3467 12 17.3467C12.1733 17.3467 12.3467 17.3067 12.5067 17.2401C12.6667 17.1734 12.8133 17.0801 12.9467 16.9467C13.0667 16.8267 13.16 16.6801 13.2267 16.5201C13.3067 16.3601 13.3333 16.1867 13.3333 16.0134C13.3333 15.8401 13.3067 15.6667 13.2267 15.4934C13.16 15.3334 13.0667 15.1867 12.9467 15.0667Z" fill="#676A71"/>
<path d="M12.9467 19.0667C12.88 19.0001 12.8133 18.9467 12.7467 18.9067C12.6667 18.8534 12.5867 18.8134 12.5067 18.7734C12.4267 18.7467 12.3467 18.7201 12.2667 18.7068C12.0933 18.6668 11.9067 18.6668 11.7467 18.7068C11.6533 18.7068 11.5733 18.7467 11.4933 18.7734C11.4133 18.8134 11.3333 18.8534 11.2667 18.9067C11.1867 18.9467 11.12 19.0001 11.0533 19.0667C10.9333 19.1867 10.84 19.3334 10.7733 19.4934C10.7067 19.6668 10.6667 19.8267 10.6667 20.0134C10.6667 20.3734 10.8133 20.7067 11.0533 20.9467C11.3067 21.2001 11.6533 21.3467 12 21.3467C12.3467 21.3467 12.6933 21.2001 12.9467 20.9467C13.2 20.7067 13.3333 20.3734 13.3333 20.0134C13.3333 19.8267 13.2933 19.6668 13.2267 19.4934C13.16 19.3334 13.0667 19.1867 12.9467 19.0667Z" fill="#676A71"/>
<path d="M16.9467 15.0667C16.88 15.0001 16.8133 14.9467 16.7467 14.8934C16.6667 14.8534 16.5867 14.8134 16.5067 14.7734C16.4267 14.7467 16.3467 14.7201 16.2667 14.7068C16 14.6534 15.7333 14.6801 15.4933 14.7734C15.3333 14.8401 15.1867 14.9467 15.0533 15.0667C14.9333 15.1867 14.84 15.3334 14.7733 15.4934C14.7067 15.6667 14.6667 15.8401 14.6667 16.0134C14.6667 16.1867 14.7067 16.3601 14.7733 16.5201C14.84 16.6801 14.9333 16.8267 15.0533 16.9467C15.1867 17.0801 15.3333 17.1734 15.4933 17.2401C15.6533 17.3067 15.8267 17.3467 16 17.3467C16.1733 17.3467 16.3467 17.3067 16.5067 17.2401C16.6667 17.1734 16.8133 17.0801 16.9467 16.9467C17.0667 16.8267 17.16 16.6801 17.2267 16.5201C17.3067 16.3601 17.3333 16.1867 17.3333 16.0134C17.3333 15.8401 17.3067 15.6667 17.2267 15.4934C17.16 15.3334 17.0667 15.1867 16.9467 15.0667Z" fill="#676A71"/>
<path d="M16.9467 19.0667C16.8267 18.9467 16.68 18.84 16.5067 18.7734C16.1867 18.64 15.8133 18.64 15.4933 18.7734C15.3333 18.84 15.1867 18.9467 15.0533 19.0667C14.9333 19.1867 14.84 19.3334 14.7733 19.4934C14.7067 19.6667 14.6667 19.8267 14.6667 20.0134C14.6667 20.1867 14.7067 20.36 14.7733 20.52C14.84 20.68 14.9333 20.8267 15.0533 20.9467C15.1867 21.0801 15.3333 21.1734 15.4933 21.2401C15.6533 21.3067 15.8267 21.3467 16 21.3467C16.36 21.3467 16.6933 21.2001 16.9467 20.9467C17.0667 20.8267 17.16 20.68 17.24 20.52C17.3067 20.36 17.3333 20.1867 17.3333 20.0134C17.3333 19.84 17.3067 19.6667 17.2267 19.4934C17.16 19.3334 17.0667 19.1867 16.9467 19.0667Z" fill="#676A71"/>
<path d="M20.9467 15.0667C20.8267 14.9467 20.68 14.84 20.5067 14.7734C20.0133 14.5734 19.4267 14.6934 19.0533 15.0667C18.9333 15.1867 18.84 15.3334 18.7733 15.4934C18.7067 15.6667 18.6667 15.84 18.6667 16.0134C18.6667 16.1867 18.7067 16.36 18.7733 16.52C18.84 16.68 18.9333 16.8267 19.0533 16.9467C19.1867 17.0801 19.3333 17.1734 19.4933 17.2401C19.6533 17.3067 19.8267 17.3467 20 17.3467C20.1733 17.3467 20.3467 17.3067 20.5067 17.2401C20.6667 17.1734 20.8133 17.0801 20.9467 16.9467C21.0667 16.8267 21.16 16.68 21.2267 16.52C21.3067 16.36 21.3333 16.1867 21.3333 16.0134C21.3333 15.84 21.3067 15.6667 21.2267 15.4934C21.16 15.3334 21.0667 15.1867 20.9467 15.0667Z" fill="#676A71"/>
<path d="M20.9467 19.0667C20.88 19.0001 20.8133 18.9467 20.7467 18.9067C20.6667 18.8534 20.5867 18.8134 20.5067 18.7734C20.4267 18.7467 20.3467 18.7201 20.2667 18.7068C20.0933 18.6668 19.9067 18.6668 19.7467 18.7068C19.6533 18.7068 19.5733 18.7467 19.4933 18.7734C19.4133 18.8134 19.3333 18.8534 19.2667 18.9067C19.1867 18.9467 19.12 19.0001 19.0533 19.0667C18.9333 19.1867 18.84 19.3334 18.7733 19.4934C18.7067 19.6668 18.6667 19.8267 18.6667 20.0134C18.6667 20.3734 18.8133 20.7067 19.0533 20.9467C19.3067 21.2001 19.6533 21.3467 20 21.3467C20.3467 21.3467 20.6933 21.2001 20.9467 20.9467C21.2 20.7067 21.3333 20.3734 21.3333 20.0134C21.3333 19.8267 21.2933 19.6668 21.2267 19.4934C21.16 19.3334 21.0667 19.1867 20.9467 19.0667Z" fill="#676A71"/>
</svg>
