<svg width="0" height="0" class="hidden">
  <symbol xmlns="http://www.w3.org/2000/svg" viewBox="0 0 32 32" id="arrow-left">
    <path d="M27.9998 14.6667H7.02653L14.1065 7.60008C14.6265 7.08008 14.6265 6.24008 14.1065 5.72008C13.5865 5.20008 12.7465 5.20008 12.2265 5.72008L3.19987 14.7201C2.87987 15.0401 2.71986 15.4667 2.6932 15.8934C2.6932 15.9334 2.6665 15.9601 2.6665 16.0001C2.6665 16.0401 2.67986 16.0667 2.6932 16.1067C2.71986 16.5334 2.87987 16.9601 3.19987 17.2801L12.2265 26.2801C12.4931 26.5334 12.8265 26.6667 13.1732 26.6667C13.5198 26.6667 13.8532 26.5334 14.1199 26.2801C14.6399 25.7601 14.6399 24.9201 14.1199 24.4001L7.03988 17.3467H28.0132C28.7465 17.3467 29.3465 16.7467 29.3465 16.0134C29.3465 15.2801 28.7465 14.6801 28.0132 14.6801L27.9998 14.6667Z" ></path>
  </symbol>
  <symbol xmlns="http://www.w3.org/2000/svg" viewBox="0 0 32 32" id="arrow-left-right">
    <path d="M28.8266 14.7199C28.6133 14.5066 24.0133 10.3066 22.6 9.02657C22.0533 8.53324 21.2133 8.57325 20.72 9.11991C20.2266 9.66658 20.2666 10.5066 20.8133 10.9999C22.04 12.1199 23.5866 13.5332 24.8266 14.6666H7.25328C8.90661 13.0932 10.8666 11.2132 10.8666 11.2132C11.3999 10.7066 11.4133 9.86657 10.9066 9.33323C10.3999 8.7999 9.55992 8.78657 9.02659 9.29323C7.29326 10.9466 3.25327 14.8132 3.15993 14.9066C2.87993 15.1866 2.71995 15.5466 2.67995 15.9332C2.63995 16.4266 2.81329 16.9066 3.18663 17.2666C3.38663 17.4666 7.81328 21.5066 9.17328 22.7332C9.42661 22.9599 9.74659 23.0799 10.0666 23.0799C10.4266 23.0799 10.7866 22.9332 11.0533 22.6399C11.5466 22.0932 11.5066 21.2532 10.9599 20.7599C9.81327 19.7199 8.37326 18.3999 7.19993 17.3332H24.7599C23.0266 18.9866 20.9066 21.0132 20.9066 21.0132C20.3733 21.5199 20.3599 22.3599 20.8666 22.8932C21.1333 23.1732 21.4799 23.3066 21.8266 23.3066C22.1599 23.3066 22.4933 23.1866 22.7466 22.9332C24.5466 21.2132 28.76 17.1866 28.8533 17.0932C29.4266 16.5066 29.5733 15.4666 28.8133 14.7199H28.8266Z" ></path>
  </symbol>
  <symbol xmlns="http://www.w3.org/2000/svg" viewBox="0 0 32 32" id="bell">
    <path d="M26.6265 19.8132L25.8665 14.2665C25.2398 9.63985 21.6665 6.05319 17.3198 5.43986V4.01327C17.3198 3.27993 16.7198 2.67993 15.9865 2.67993C15.2532 2.67993 14.6532 3.27993 14.6532 4.01327V5.43986C10.3065 6.06653 6.75983 9.63985 6.11983 14.2665L5.35984 19.8132C5.15984 21.2532 5.58649 22.6933 6.53316 23.7599C7.42649 24.7733 8.69317 25.3599 10.0265 25.3599H11.4265C11.7198 27.5865 13.6132 29.3199 15.9198 29.3199C18.2265 29.3199 20.1198 27.5865 20.4132 25.3599H21.9198C23.2532 25.3599 24.5198 24.7733 25.4132 23.7599C26.3598 22.6799 26.7865 21.2399 26.5865 19.8132H26.6265ZM15.9465 26.6666C15.1065 26.6666 14.4132 26.1199 14.1598 25.3732H17.7332C17.4798 26.1199 16.7865 26.6666 15.9465 26.6666ZM23.4398 22.0133C23.0532 22.4533 22.5198 22.7065 21.9465 22.7065H10.0398C9.4665 22.7065 8.9465 22.4666 8.5465 22.0133C8.11984 21.5199 7.91983 20.8399 8.01316 20.1733L8.77317 14.6265C9.27984 10.8532 12.3865 7.99992 15.9998 7.99992C19.6132 7.99992 22.7065 10.8532 23.2265 14.6265L23.9865 20.1733C24.0798 20.8399 23.8798 21.5199 23.4532 22.0133H23.4398Z" ></path>
  </symbol>
  <symbol xmlns="http://www.w3.org/2000/svg" viewBox="0 0 32 32" id="book-page-down">
    <path d="M29.2668 8.68001C29.2001 8.53335 27.4934 5.23991 22.0267 5.23991C18.9867 5.23991 17.1334 6.29323 16.0801 7.22656C15.0001 6.2799 13.1067 5.22656 9.98673 5.22656C4.62673 5.22656 2.93341 8.53335 2.86674 8.68001L2.7334 8.95996V23.9066C2.7334 24.6799 3.10673 25.4 3.7334 25.8534C4.34673 26.2934 5.14677 26.4 5.85343 26.1466C6.82677 25.8 8.34676 25.3866 10.0134 25.3866C12.5601 25.3866 14.7068 26.2534 15.3068 26.52C15.5068 26.6134 15.7201 26.6533 15.9201 26.6533C15.9734 26.6533 16.0134 26.64 16.0667 26.6266C16.1201 26.6266 16.1867 26.6533 16.2401 26.6533C16.4401 26.6533 16.6534 26.6134 16.8534 26.52C17.4401 26.2534 19.5467 25.3999 22.0801 25.3999C23.7867 25.3999 25.3067 25.8 26.2934 26.1466C27.0001 26.3866 27.7867 26.28 28.4001 25.84C29.0267 25.4 29.4001 24.6666 29.4001 23.9066V8.94661L29.2534 8.66667L29.2668 8.68001ZM14.7601 23.4666C13.5468 23.08 11.8934 22.7199 10.0267 22.7199C8.16007 22.7199 6.57341 23.1066 5.41341 23.48V9.66667C5.81341 9.14667 7.08008 7.90658 10.0001 7.90658C13.0667 7.90658 14.3734 9.17335 14.7601 9.68001V23.4666ZM26.7467 23.4933C25.5734 23.12 23.9334 22.7466 22.0934 22.7466C20.2534 22.7466 18.6267 23.1066 17.4401 23.48V9.68001C17.8267 9.16001 19.0801 7.91992 22.0401 7.91992C25.0001 7.91992 26.3601 9.17335 26.7467 9.68001V23.5067V23.4933Z" ></path>
  </symbol>
  <symbol xmlns="http://www.w3.org/2000/svg" viewBox="0 0 32 32" id="bulb">
    <path d="M26.4535 13.1066C26.4535 7.34661 21.7602 2.65332 16.0002 2.65332C10.2402 2.65332 5.54688 7.34661 5.54688 13.1066C5.54688 16.8266 7.56019 20.2399 10.7335 22.1066L10.7069 24.1066C10.7069 26.9999 13.0535 29.3467 15.9469 29.3467C18.8402 29.3467 21.1869 26.9999 21.1869 24.1066V22.16C24.4002 20.3067 26.4535 16.8666 26.4535 13.1066V13.1066ZM18.5202 24.1066C18.5202 25.5199 17.3602 26.68 15.9469 26.68C14.5335 26.68 13.3735 25.5199 13.3735 24.1066V22.72H18.5202V24.1066ZM19.5202 20.0533H17.3335V13.3467C17.3335 12.6133 16.7335 12.0133 16.0002 12.0133C15.2669 12.0133 14.6669 12.6133 14.6669 13.3467V20.0533H12.4802C9.88018 18.7333 8.21354 16.0399 8.21354 13.1066C8.21354 8.81327 11.7069 5.31999 16.0002 5.31999C20.2935 5.31999 23.7869 8.81327 23.7869 13.1066C23.7869 16.0399 22.1202 18.7333 19.5202 20.0533Z" ></path>
  </symbol>
  <symbol xmlns="http://www.w3.org/2000/svg" viewBox="0 0 32 32" id="download">
    <path d="M14.8003 23.4799C14.987 23.6666 15.2137 23.7865 15.4537 23.8665C15.627 23.9465 15.8137 23.9999 16.0137 23.9999C16.2137 23.9999 16.4003 23.9465 16.5603 23.8665C16.8003 23.7865 17.027 23.6666 17.2137 23.4799L24.2137 16.4666C24.7337 15.9466 24.7337 15.1066 24.2137 14.5866C23.6937 14.0666 22.8537 14.0666 22.3337 14.5866L17.3603 19.5866V4.01326C17.3603 3.27993 16.7737 2.67993 16.027 2.67993C15.2803 2.67993 14.6937 3.27993 14.6937 4.01326V19.5866L9.70701 14.5999C9.18701 14.0799 8.34701 14.0799 7.82701 14.5999C7.30701 15.1199 7.30701 15.9599 7.82701 16.4799L14.827 23.4932L14.8003 23.4799Z" ></path>
    <path d="M25.3335 24C24.6002 24 24.0002 24.6 24.0002 25.3333C24.0002 26.2133 23.2002 26.68 22.4535 26.68H9.52016C8.76016 26.68 8.00016 26.2133 8.00016 25.3333C8.00016 24.6 7.40016 24 6.66683 24C5.9335 24 5.3335 24.6 5.3335 25.3333C5.3335 27.5867 7.1735 29.3467 9.52016 29.3467H22.4535C24.8135 29.3467 26.6668 27.5867 26.6668 25.3333C26.6668 24.6 26.0668 24 25.3335 24Z" ></path>
  </symbol>
  <symbol xmlns="http://www.w3.org/2000/svg" viewBox="0 0 32 32" id="eye-slash">
    <path d="M28.0802 12.6401C25.4535 9.49341 21.2402 5.73341 16.0135 5.73341C15.0135 5.73341 13.9868 5.88007 12.9735 6.16007C12.2668 6.36007 11.8535 7.09341 12.0535 7.80007C12.2535 8.50674 12.9869 8.92008 13.6935 8.72008C14.4669 8.50674 15.2535 8.38674 16.0135 8.38674C20.4135 8.38674 24.1735 12.1067 26.0269 14.3334C26.8669 15.3467 26.8802 16.7734 26.0669 17.7867C25.7469 18.1867 25.3869 18.6001 24.9869 19.0267C24.4802 19.5601 24.5069 20.4134 25.0402 20.9067C25.2935 21.1467 25.6269 21.2667 25.9602 21.2667C26.3202 21.2667 26.6668 21.1201 26.9335 20.8534C27.3868 20.3734 27.7869 19.9067 28.1469 19.4667C29.7602 17.4801 29.7335 14.6001 28.0935 12.6267L28.0802 12.6401Z" ></path>
    <path d="M10.7335 8.85341C10.6935 8.74674 10.6668 8.64008 10.6002 8.53341C10.4268 8.28008 10.1868 8.13341 9.93351 8.04008L7.61352 5.72008C7.09352 5.20008 6.24018 5.20008 5.73352 5.72008C5.21352 6.24008 5.21352 7.08008 5.73352 7.60008L7.36018 9.22674C6.18685 10.1734 5.05352 11.2934 3.94685 12.6001C2.28019 14.5734 2.22685 17.3601 3.81351 19.3867C5.82685 21.9467 10.0802 26.2534 15.9602 26.2534C18.1868 26.2534 20.3735 25.6134 22.4935 24.4001L24.3602 26.2801C24.6269 26.5467 24.9602 26.6667 25.3068 26.6667C25.6535 26.6667 25.9868 26.5334 26.2535 26.2801C26.7735 25.7601 26.7735 24.9201 26.2535 24.4001L10.7335 8.85341ZM13.4269 15.3334L16.6668 18.5734C16.4535 18.6267 16.2268 18.6667 16.0002 18.6667C14.5335 18.6667 13.3335 17.4667 13.3335 16.0001C13.3335 15.7734 13.3735 15.5467 13.4269 15.3334ZM15.9469 23.6001C11.2002 23.6001 7.61351 19.9334 5.89351 17.7467C5.09351 16.7334 5.12018 15.3201 5.96018 14.3334C7.01351 13.0801 8.10684 12.0134 9.22684 11.1467L11.4135 13.3334C10.9335 14.1467 10.6535 15.0534 10.6535 16.0134C10.6535 18.9601 13.0402 21.3467 15.9869 21.3467C16.9335 21.3467 17.8535 21.0667 18.6535 20.6001L20.5069 22.4667C19.0002 23.2267 17.4668 23.6134 15.9335 23.6134L15.9469 23.6001Z" ></path>
  </symbol>
  <symbol xmlns="http://www.w3.org/2000/svg" viewBox="0 0 32 32" id="filter">
    <path d="M2.65344 8.63989C2.64011 7.39989 3.1068 6.22652 3.97347 5.34652C4.8268 4.47985 5.96012 4.01318 7.16012 4.01318H24.9735C26.1068 4.01318 27.1601 4.43991 27.9601 5.23991C28.8268 6.10658 29.3201 7.35991 29.3068 8.65324C29.3068 9.97324 28.7201 11.2265 27.7334 12.0932L20.8668 18.2C20.6001 18.44 20.3068 19.1332 20.3068 19.7465V24.04C20.3068 24.9333 19.8268 25.7732 19.0535 26.2398L18.8535 26.3466L15.3601 27.7198C14.9868 27.9198 14.5734 28.0266 14.1601 28.0266C13.7334 28.0266 13.3068 27.9199 12.9068 27.6933C12.0934 27.2399 11.6001 26.3732 11.6001 25.4399V19.4932C11.6001 19.1866 11.2934 18.5732 10.8134 18.1466L4.13346 11.9732C3.20013 11.1332 2.65347 9.91989 2.64014 8.63989H2.65344ZM17.6801 23.9332L17.6401 19.7332C17.6401 18.5998 18.0934 17.0666 19.1068 16.1866L25.9735 10.0799C26.4001 9.70658 26.6401 9.18655 26.6401 8.62655C26.6401 8.03988 26.4268 7.47986 26.0668 7.10653C25.8534 6.89319 25.5068 6.65324 24.9735 6.65324H7.17346C6.68013 6.66657 6.21345 6.86655 5.86678 7.21322C5.50678 7.58655 5.30678 8.06651 5.32011 8.58651V8.62655C5.32011 9.14655 5.56011 9.65325 5.94678 9.99992L12.6268 16.1733C13.3868 16.8666 14.2935 18.1466 14.2935 19.4932V25.4399" ></path>
  </symbol>
  <symbol xmlns="http://www.w3.org/2000/svg" viewBox="0 0 32 32" id="lock-closed-II">
    <path d="M16 18.6533C14.9867 18.6533 14.1733 19.4666 14.1733 20.48C14.1733 21.4933 14.9867 22.3066 16 22.3066C17.0133 22.3066 17.8267 21.4933 17.8267 20.48C17.8267 19.4666 17.0133 18.6533 16 18.6533Z" ></path>
    <path d="M21.6002 12.0001H21.3335V8.00008C21.3335 5.05341 18.9468 2.66675 16.0002 2.66675C13.0535 2.66675 10.6668 5.05341 10.6668 8.00008V12.0001H10.4001C7.60015 12.0001 5.3335 14.2801 5.3335 17.0667V24.2534C5.3335 27.0534 7.61348 29.3201 10.4001 29.3201H21.5868C24.3868 29.3201 26.6535 27.0401 26.6535 24.2534V17.0667C26.6535 14.2667 24.3735 12.0001 21.5868 12.0001H21.6002ZM13.3335 8.00008C13.3335 6.53341 14.5335 5.33341 16.0002 5.33341C17.4668 5.33341 18.6668 6.53341 18.6668 8.00008V12.0001H13.3335V8.00008ZM24.0002 24.2668C24.0002 25.5868 22.9202 26.6667 21.6002 26.6667H10.4135C9.09349 26.6667 8.01351 25.5868 8.01351 24.2668V17.0801C8.01351 15.7601 9.09349 14.6801 10.4135 14.6801H21.6002C22.9202 14.6801 24.0002 15.7601 24.0002 17.0801V24.2668Z" ></path>
  </symbol>
  <symbol xmlns="http://www.w3.org/2000/svg" viewBox="0 0 170 40" id="logo">
    <path d="M14.9976 23.2929L19.8092 18.5352H31.7618L21.1736 29.2829L14.9976 23.2929Z" ></path>
    <path d="M0 20.109L6.01134 26.3562L31.7618 0H19.8092L0 20.109Z" ></path>
    <path d="M8.97478 29.3424L15.072 35.4399L21.1736 29.2829L14.9976 23.2929L8.97478 29.3424Z" ></path>
    <path d="M15.072 35.4399L21.1736 29.2829L31.6129 40H19.5931L15.072 35.4399Z" ></path>
    <path d="M15.072 35.4399L20.757 33.5203L18.8415 31.6355L15.072 35.4399Z" ></path>
    <path d="M56.6819 16.7061C56.6819 17.2874 56.5785 17.8687 56.3717 18.45C56.1649 19.0151 55.8865 19.5398 55.5366 20.0242C55.0275 20.7347 54.3595 21.2998 53.5323 21.7196C52.7211 22.1394 51.8541 22.3493 50.9315 22.3493H46.3265V28.2831H43.0815V10.845H50.9315C51.5201 10.845 52.1007 10.9338 52.6733 11.1114C53.246 11.289 53.7789 11.5635 54.272 11.9349C54.7651 12.2901 55.1866 12.7099 55.5366 13.1943C55.9024 13.6949 56.1808 14.2519 56.3717 14.8655C56.5785 15.4629 56.6819 16.0764 56.6819 16.7061ZM52.8642 18.2078C53.2142 17.7234 53.3891 17.2228 53.3891 16.7061C53.3891 15.9634 53.1824 15.3579 52.7688 14.8897C52.5302 14.6152 52.2359 14.3891 51.886 14.2115C51.5519 14.0339 51.2258 13.9451 50.9077 13.9451H46.3265V19.2734H50.9077C51.2417 19.2734 51.5917 19.1765 51.9575 18.9828C52.3234 18.789 52.6256 18.5307 52.8642 18.2078Z" ></path>
    <path d="M61.6284 22.6399C61.7397 23.3988 61.9624 24.0043 62.2965 24.4564C62.551 24.8116 62.885 25.0861 63.2986 25.2799C63.7122 25.4736 64.1576 25.5705 64.6348 25.5705C65.112 25.5705 65.5574 25.4736 65.9709 25.2799C66.3845 25.0861 66.7265 24.8116 66.9969 24.4564C67.0446 24.3918 67.0844 24.3272 67.1162 24.2626C67.148 24.1819 67.1878 24.1092 67.2355 24.0447L70.4567 25.4736C70.2499 25.8288 69.9954 26.1841 69.6931 26.5393C69.0887 27.2174 68.3729 27.7422 67.5457 28.1135C66.7345 28.4688 65.8755 28.6464 64.9688 28.6464C63.903 28.6464 62.9089 28.4688 61.9863 28.1135C61.0637 27.7422 60.3002 27.1932 59.6957 26.4666C58.6459 25.1588 58.1209 23.6572 58.1209 21.9618C58.1209 19.9435 58.6459 18.2966 59.6957 17.021C60.2843 16.3106 61.008 15.7697 61.867 15.3983C62.7418 15.0269 63.6645 14.8412 64.6348 14.8412C65.6051 14.8412 66.5197 15.0269 67.3787 15.3983C68.2536 15.7697 68.9853 16.3106 69.5738 17.021C70.0988 17.6669 70.4885 18.3934 70.743 19.2008C71.0134 20.0081 71.1486 20.8558 71.1486 21.7438C71.1486 21.9537 71.1327 22.2524 71.1009 22.6399H61.6284ZM64.6348 17.9171C64.1576 17.9171 63.7122 18.014 63.2986 18.2078C62.885 18.3854 62.551 18.6599 62.2965 19.0312C62.0738 19.3219 61.8988 19.6771 61.7715 20.0969H67.498C67.3707 19.6932 67.2037 19.338 66.9969 19.0312C66.7265 18.6599 66.3845 18.3854 65.9709 18.2078C65.5733 18.014 65.1279 17.9171 64.6348 17.9171Z" ></path>
    <path d="M76.5708 22.6399C76.6822 23.3988 76.9049 24.0043 77.2389 24.4564C77.4934 24.8116 77.8275 25.0861 78.2411 25.2799C78.6546 25.4736 79.1 25.5705 79.5772 25.5705C80.0544 25.5705 80.4998 25.4736 80.9134 25.2799C81.327 25.0861 81.669 24.8116 81.9394 24.4564C81.9871 24.3918 82.0269 24.3272 82.0587 24.2626C82.0905 24.1819 82.1303 24.1092 82.178 24.0447L85.3991 25.4736C85.1923 25.8288 84.9378 26.1841 84.6356 26.5393C84.0311 27.2174 83.3153 27.7422 82.4882 28.1135C81.6769 28.4688 80.8179 28.6464 79.9113 28.6464C78.8455 28.6464 77.8513 28.4688 76.9287 28.1135C76.0061 27.7422 75.2426 27.1932 74.6382 26.4666C73.5883 25.1588 73.0634 23.6572 73.0634 21.9618C73.0634 19.9435 73.5883 18.2966 74.6382 17.021C75.2267 16.3106 75.9505 15.7697 76.8094 15.3983C77.6843 15.0269 78.6069 14.8412 79.5772 14.8412C80.5475 14.8412 81.4622 15.0269 82.3212 15.3983C83.196 15.7697 83.9277 16.3106 84.5163 17.021C85.0412 17.6669 85.4309 18.3934 85.6854 19.2008C85.9559 20.0081 86.0911 20.8558 86.0911 21.7438C86.0911 21.9537 86.0752 22.2524 86.0433 22.6399H76.5708ZM79.5772 17.9171C79.1 17.9171 78.6546 18.014 78.2411 18.2078C77.8275 18.3854 77.4934 18.6599 77.2389 19.0312C77.0162 19.3219 76.8412 19.6771 76.714 20.0969H82.4405C82.3132 19.6932 82.1462 19.338 81.9394 19.0312C81.669 18.6599 81.327 18.3854 80.9134 18.2078C80.5157 18.014 80.0703 17.9171 79.5772 17.9171Z" ></path>
    <path d="M97.1205 19.4672C97.025 19.2896 96.9375 19.1442 96.858 19.0312C96.6035 18.676 96.2615 18.4015 95.832 18.2078C95.4184 18.014 94.973 17.9171 94.4958 17.9171C94.0186 17.9171 93.5732 18.014 93.1597 18.2078C92.7461 18.4015 92.412 18.676 92.1575 19.0312C91.6962 19.6448 91.4497 20.549 91.4179 21.7438C91.4497 22.9386 91.6962 23.8428 92.1575 24.4564C92.412 24.8116 92.7461 25.0861 93.1597 25.2799C93.5732 25.4575 94.0186 25.5463 94.4958 25.5463C94.9889 25.5463 95.4423 25.4575 95.8559 25.2799C96.2694 25.0861 96.6035 24.8116 96.858 24.4564L97.0966 24.0447L100.151 25.3767C99.8644 25.8611 99.6258 26.2163 99.4349 26.4424C98.8463 27.1528 98.1146 27.7018 97.2398 28.0893C96.3649 28.4768 95.4502 28.6544 94.4958 28.6222C93.5414 28.6544 92.6268 28.4849 91.7519 28.1135C90.8929 27.726 90.1692 27.169 89.5806 26.4424C88.5308 25.1668 88.0058 23.6006 88.0058 21.7438C88.0058 19.9031 88.5308 18.3289 89.5806 17.021C90.1851 16.2944 90.9168 15.7535 91.7758 15.3983C92.6347 15.0269 93.5414 14.8412 94.4958 14.8412C95.4661 14.8412 96.3808 15.0269 97.2398 15.3983C98.1146 15.7697 98.8463 16.3106 99.4349 17.021C99.7371 17.3924 99.9757 17.7637 100.151 18.1351L97.1205 19.4672Z" ></path>
    <path d="M113.275 18.1109H109.052V28.2831H105.807V18.1109H101.584V15.2045H113.275V18.1109Z" ></path>
    <path d="M126.565 16.9241C127.059 17.5538 127.432 18.2885 127.687 19.1281C127.941 19.9516 128.069 20.8235 128.069 21.7438C128.069 23.7137 127.568 25.3202 126.565 26.5635C126.041 27.2255 125.38 27.7422 124.585 28.1135C123.806 28.4688 122.986 28.6464 122.127 28.6464C120.855 28.6464 119.749 28.3557 118.811 27.7745V34.0958H115.542V15.2045H118.405V16.028C118.898 15.6566 119.447 15.366 120.052 15.1561C120.672 14.9462 121.308 14.8412 121.96 14.8412C122.883 14.8412 123.742 15.0189 124.537 15.3741C125.349 15.7293 126.025 16.246 126.565 16.9241ZM123.989 24.5533C124.418 23.9074 124.633 22.9709 124.633 21.7438C124.633 20.5651 124.402 19.6286 123.941 18.9343C123.432 18.1593 122.613 17.7718 121.483 17.7718C120.545 17.7718 119.821 18.0786 119.312 18.6921C119.01 19.0474 118.779 19.4914 118.62 20.0242C118.477 20.5571 118.405 21.1302 118.405 21.7438C118.405 22.3574 118.477 22.9386 118.62 23.4876C118.779 24.0204 119.01 24.4564 119.312 24.7955C119.869 25.409 120.632 25.7158 121.603 25.7158C122.096 25.7158 122.549 25.627 122.963 25.4494C123.392 25.2556 123.734 24.9569 123.989 24.5533Z" ></path>
    <path d="M150.482 28.2831H147.237V14.1389H138.934V28.2831H135.689V10.845H150.482V28.2831Z" ></path>
    <path d="M161.673 28.6464C160.416 28.6464 159.231 28.4042 158.118 27.9198C157.004 27.4192 156.082 26.7088 155.35 25.7885C154.682 24.965 154.181 24.0204 153.847 22.9548C153.513 21.8891 153.346 20.7589 153.346 19.564C153.346 18.3692 153.513 17.239 153.847 16.1733C154.181 15.0915 154.682 14.1389 155.35 13.3154C156.082 12.3789 156.996 11.6766 158.094 11.2083C159.207 10.7239 160.4 10.4817 161.673 10.4817C162.945 10.4817 164.13 10.7239 165.228 11.2083C166.326 11.6927 167.248 12.3951 167.996 13.3154C168.68 14.1712 169.173 15.1157 169.475 16.1491C169.793 17.1825 169.968 18.3208 170 19.564C169.968 20.8235 169.793 21.9699 169.475 23.0032C169.173 24.0204 168.68 24.9489 167.996 25.7885C167.232 26.725 166.294 27.4354 165.18 27.9198C164.083 28.4042 162.914 28.6464 161.673 28.6464ZM161.577 25.5463C162.373 25.5463 163.104 25.401 163.772 25.1103C164.441 24.8197 164.989 24.3837 165.419 23.8025C166.182 22.7691 166.564 21.3563 166.564 19.564C166.564 17.7557 166.182 16.3429 165.419 15.3256C165.005 14.7605 164.472 14.3326 163.82 14.042C163.184 13.7352 162.5 13.5818 161.768 13.5818C160.973 13.5818 160.233 13.7271 159.549 14.0178C158.881 14.3084 158.34 14.7444 157.927 15.3256C157.179 16.2944 156.789 17.7072 156.758 19.564C156.789 21.4047 157.179 22.8175 157.927 23.8025C158.324 24.3676 158.849 24.8035 159.501 25.1103C160.154 25.401 160.846 25.5463 161.577 25.5463Z" ></path>
  </symbol>
  <symbol xmlns="http://www.w3.org/2000/svg" viewBox="0 0 32 32" id="logout">
    <path d="M18.6667 20C17.9333 20 17.3333 20.6 17.3333 21.3333V22.6667C17.3333 24.1067 16.4133 25.3333 15.3333 25.3333H8.66667C7.58667 25.3333 6.66667 24.1067 6.66667 22.6667V9.33333C6.66667 7.89333 7.58667 6.66667 8.66667 6.66667H15.3333C16.4133 6.66667 17.3333 7.89333 17.3333 9.33333V10.6667C17.3333 11.4 17.9333 12 18.6667 12C19.4 12 20 11.4 20 10.6667V9.33333C20 6.38667 17.9067 4 15.3333 4H8.66667C6.09333 4 4 6.38667 4 9.33333V22.6667C4 25.6133 6.09333 28 8.66667 28H15.3333C17.9067 28 20 25.6133 20 22.6667V21.3333C20 20.6 19.4 20 18.6667 20Z" ></path>
    <path d="M28.0002 15.9999C28.0002 15.8133 27.9602 15.6266 27.8802 15.4666C27.8002 15.2532 27.6935 15.0666 27.5335 14.9066L23.5202 10.9066C23.0002 10.3866 22.1602 10.3866 21.6402 10.9066C21.1202 11.4266 21.1202 12.2666 21.6402 12.7866L23.5202 14.6533H10.6668C9.9335 14.6533 9.3335 15.2533 9.3335 15.9866C9.3335 16.7199 9.9335 17.3199 10.6668 17.3199H23.5202L21.6535 19.1866C21.1335 19.7065 21.1335 20.5466 21.6535 21.0666C21.9201 21.3333 22.2535 21.4532 22.6002 21.4532C22.9468 21.4532 23.2802 21.3199 23.5468 21.0666L27.5468 17.0799C27.7068 16.9199 27.8268 16.7199 27.8935 16.5199C27.9602 16.3599 28.0135 16.1733 28.0135 15.9866L28.0002 15.9999Z" ></path>
  </symbol>
  <symbol xmlns="http://www.w3.org/2000/svg" viewBox="0 0 32 32" id="note-bookmark">
    <path d="M21.3467 4H10.6667C6.98667 4 4 6.98667 4 10.6667V21.3467C4 25.0267 6.98667 28.0133 10.6667 28.0133H21.3467C25.0267 28.0133 28.0133 25.0267 28.0133 21.3467V10.6667C28.0133 6.98667 25.0267 4 21.3467 4ZM15.16 15.96L13.3333 16.8534V6.66667H18.68V16.8534L16.8533 15.96C16.32 15.6933 15.6933 15.6933 15.16 15.96ZM25.3467 21.3333C25.3467 23.5333 23.5467 25.3333 21.3467 25.3333H10.6667C8.46667 25.3333 6.66667 23.5333 6.66667 21.3333V10.6533C6.66667 8.45332 8.45332 6.66665 10.6533 6.65332V18.0533C10.6533 18.7066 10.9867 19.3067 11.5467 19.6667C12.12 20.0267 12.8133 20.0534 13.4133 19.7734L15.9867 18.52L18.56 19.7734C18.8266 19.9067 19.12 19.9733 19.4 19.9733C19.76 19.9733 20.1067 19.88 20.4267 19.68C20.9867 19.3333 21.32 18.7333 21.32 18.0666V6.66667C23.52 6.66667 25.32 8.46667 25.32 10.6667V21.3467L25.3467 21.3333Z" ></path>
  </symbol>
  <symbol xmlns="http://www.w3.org/2000/svg" viewBox="0 0 32 32" id="notes-calendar">
    <path d="M22.6667 5.33341V4.00008C22.6667 3.26675 22.0667 2.66675 21.3333 2.66675C20.6 2.66675 20 3.26675 20 4.00008V5.33341H12V4.00008C12 3.26675 11.4 2.66675 10.6667 2.66675C9.93333 2.66675 9.33333 3.26675 9.33333 4.00008V5.33341C6.38667 5.33341 4 7.72008 4 10.6667V22.6667C4 25.6134 6.38667 28.0001 9.33333 28.0001H22.6667C25.6133 28.0001 28 25.6134 28 22.6667V10.6667C28 7.72008 25.6133 5.33341 22.6667 5.33341ZM25.3333 22.6667C25.3333 24.1334 24.1333 25.3334 22.6667 25.3334H9.33333C7.86667 25.3334 6.66667 24.1334 6.66667 22.6667V10.6667C6.66667 9.20008 7.86667 8.00008 9.33333 8.00008V9.33342C9.33333 10.0667 9.93333 10.6667 10.6667 10.6667C11.4 10.6667 12 10.0667 12 9.33342V8.00008H20V9.33342C20 10.0667 20.6 10.6667 21.3333 10.6667C22.0667 10.6667 22.6667 10.0667 22.6667 9.33342V8.00008C24.1333 8.00008 25.3333 9.20008 25.3333 10.6667V22.6667Z" ></path>
    <path d="M12.9467 15.0667C12.4533 14.5734 11.5467 14.5734 11.0533 15.0667C10.9333 15.1867 10.84 15.3334 10.7733 15.4934C10.7067 15.6667 10.6667 15.8401 10.6667 16.0134C10.6667 16.1867 10.7067 16.3601 10.7733 16.5201C10.84 16.6801 10.9333 16.8267 11.0533 16.9467C11.3067 17.2001 11.6533 17.3467 12 17.3467C12.1733 17.3467 12.3467 17.3067 12.5067 17.2401C12.6667 17.1734 12.8133 17.0801 12.9467 16.9467C13.0667 16.8267 13.16 16.6801 13.2267 16.5201C13.3067 16.3601 13.3333 16.1867 13.3333 16.0134C13.3333 15.8401 13.3067 15.6667 13.2267 15.4934C13.16 15.3334 13.0667 15.1867 12.9467 15.0667Z" ></path>
    <path d="M12.9467 19.0667C12.88 19.0001 12.8133 18.9467 12.7467 18.9067C12.6667 18.8534 12.5867 18.8134 12.5067 18.7734C12.4267 18.7467 12.3467 18.7201 12.2667 18.7068C12.0933 18.6668 11.9067 18.6668 11.7467 18.7068C11.6533 18.7068 11.5733 18.7467 11.4933 18.7734C11.4133 18.8134 11.3333 18.8534 11.2667 18.9067C11.1867 18.9467 11.12 19.0001 11.0533 19.0667C10.9333 19.1867 10.84 19.3334 10.7733 19.4934C10.7067 19.6668 10.6667 19.8267 10.6667 20.0134C10.6667 20.3734 10.8133 20.7067 11.0533 20.9467C11.3067 21.2001 11.6533 21.3467 12 21.3467C12.3467 21.3467 12.6933 21.2001 12.9467 20.9467C13.2 20.7067 13.3333 20.3734 13.3333 20.0134C13.3333 19.8267 13.2933 19.6668 13.2267 19.4934C13.16 19.3334 13.0667 19.1867 12.9467 19.0667Z" ></path>
    <path d="M16.9467 15.0667C16.88 15.0001 16.8133 14.9467 16.7467 14.8934C16.6667 14.8534 16.5867 14.8134 16.5067 14.7734C16.4267 14.7467 16.3467 14.7201 16.2667 14.7068C16 14.6534 15.7333 14.6801 15.4933 14.7734C15.3333 14.8401 15.1867 14.9467 15.0533 15.0667C14.9333 15.1867 14.84 15.3334 14.7733 15.4934C14.7067 15.6667 14.6667 15.8401 14.6667 16.0134C14.6667 16.1867 14.7067 16.3601 14.7733 16.5201C14.84 16.6801 14.9333 16.8267 15.0533 16.9467C15.1867 17.0801 15.3333 17.1734 15.4933 17.2401C15.6533 17.3067 15.8267 17.3467 16 17.3467C16.1733 17.3467 16.3467 17.3067 16.5067 17.2401C16.6667 17.1734 16.8133 17.0801 16.9467 16.9467C17.0667 16.8267 17.16 16.6801 17.2267 16.5201C17.3067 16.3601 17.3333 16.1867 17.3333 16.0134C17.3333 15.8401 17.3067 15.6667 17.2267 15.4934C17.16 15.3334 17.0667 15.1867 16.9467 15.0667Z" ></path>
    <path d="M16.9467 19.0667C16.8267 18.9467 16.68 18.84 16.5067 18.7734C16.1867 18.64 15.8133 18.64 15.4933 18.7734C15.3333 18.84 15.1867 18.9467 15.0533 19.0667C14.9333 19.1867 14.84 19.3334 14.7733 19.4934C14.7067 19.6667 14.6667 19.8267 14.6667 20.0134C14.6667 20.1867 14.7067 20.36 14.7733 20.52C14.84 20.68 14.9333 20.8267 15.0533 20.9467C15.1867 21.0801 15.3333 21.1734 15.4933 21.2401C15.6533 21.3067 15.8267 21.3467 16 21.3467C16.36 21.3467 16.6933 21.2001 16.9467 20.9467C17.0667 20.8267 17.16 20.68 17.24 20.52C17.3067 20.36 17.3333 20.1867 17.3333 20.0134C17.3333 19.84 17.3067 19.6667 17.2267 19.4934C17.16 19.3334 17.0667 19.1867 16.9467 19.0667Z" ></path>
    <path d="M20.9467 15.0667C20.8267 14.9467 20.68 14.84 20.5067 14.7734C20.0133 14.5734 19.4267 14.6934 19.0533 15.0667C18.9333 15.1867 18.84 15.3334 18.7733 15.4934C18.7067 15.6667 18.6667 15.84 18.6667 16.0134C18.6667 16.1867 18.7067 16.36 18.7733 16.52C18.84 16.68 18.9333 16.8267 19.0533 16.9467C19.1867 17.0801 19.3333 17.1734 19.4933 17.2401C19.6533 17.3067 19.8267 17.3467 20 17.3467C20.1733 17.3467 20.3467 17.3067 20.5067 17.2401C20.6667 17.1734 20.8133 17.0801 20.9467 16.9467C21.0667 16.8267 21.16 16.68 21.2267 16.52C21.3067 16.36 21.3333 16.1867 21.3333 16.0134C21.3333 15.84 21.3067 15.6667 21.2267 15.4934C21.16 15.3334 21.0667 15.1867 20.9467 15.0667Z" ></path>
    <path d="M20.9467 19.0667C20.88 19.0001 20.8133 18.9467 20.7467 18.9067C20.6667 18.8534 20.5867 18.8134 20.5067 18.7734C20.4267 18.7467 20.3467 18.7201 20.2667 18.7068C20.0933 18.6668 19.9067 18.6668 19.7467 18.7068C19.6533 18.7068 19.5733 18.7467 19.4933 18.7734C19.4133 18.8134 19.3333 18.8534 19.2667 18.9067C19.1867 18.9467 19.12 19.0001 19.0533 19.0667C18.9333 19.1867 18.84 19.3334 18.7733 19.4934C18.7067 19.6668 18.6667 19.8267 18.6667 20.0134C18.6667 20.3734 18.8133 20.7067 19.0533 20.9467C19.3067 21.2001 19.6533 21.3467 20 21.3467C20.3467 21.3467 20.6933 21.2001 20.9467 20.9467C21.2 20.7067 21.3333 20.3734 21.3333 20.0134C21.3333 19.8267 21.2933 19.6668 21.2267 19.4934C21.16 19.3334 21.0667 19.1867 20.9467 19.0667Z" ></path>
  </symbol>
  <symbol xmlns="http://www.w3.org/2000/svg" viewBox="0 0 32 32" id="paper">
    <path d="M26.8402 11.6133L20.2669 5.03996C19.6002 4.37329 18.6935 4 17.7469 4H11.8936C7.48022 4 3.89355 7.58667 3.89355 12V20C3.89355 24.4133 7.48022 28 11.8936 28H19.8936C24.3069 28 27.8936 24.4133 27.8936 20V14.1466C27.8936 13.2 27.5202 12.2933 26.8536 11.6266L26.8402 11.6133ZM19.5469 8.09334L23.8002 12.3467H21.6802C20.5069 12.3467 19.5469 11.4533 19.5469 10.3467V8.09334ZM19.8802 25.32H11.8802C8.93354 25.32 6.54688 22.9333 6.54688 19.9867V11.9867C6.54688 9.03999 8.93354 6.65332 11.8802 6.65332H16.8669V10.3467C16.8669 12.92 19.0269 15.0133 21.6669 15.0133H25.2002V19.9867C25.2002 22.9333 22.8135 25.32 19.8669 25.32H19.8802Z" ></path>
  </symbol>
  <symbol xmlns="http://www.w3.org/2000/svg" viewBox="0 0 32 32" id="search">
    <path d="M26.4132 24.4667L22.5465 20.6C23.9998 18.7333 24.7865 16.4533 24.7865 14.0533C24.7865 11.1867 23.6665 8.49333 21.6398 6.46666C17.4665 2.27999 10.6532 2.27999 6.47984 6.46666C2.29318 10.6533 2.29318 17.4533 6.47984 21.6267C8.50651 23.6533 11.1998 24.7733 14.0665 24.7733C16.4932 24.7733 18.7998 23.96 20.6665 22.4933L24.5332 26.36C24.7998 26.6267 25.1332 26.7467 25.4798 26.7467C25.8265 26.7467 26.1598 26.6133 26.4265 26.36C26.9465 25.84 26.9465 25 26.4265 24.48L26.4132 24.4667ZM8.35984 19.7467C5.21318 16.6 5.21318 11.4933 8.35984 8.35999C9.93318 6.78666 11.9998 5.99999 14.0532 5.99999C16.1065 5.99999 18.1732 6.78666 19.7465 8.35999C21.3198 9.93332 22.1065 11.9067 22.1065 14.0533C22.1065 16.2 21.2665 18.2267 19.7465 19.7467C18.2265 21.2667 16.1998 22.1067 14.0532 22.1067C11.9065 22.1067 9.87984 21.2667 8.35984 19.7467V19.7467Z" ></path>
  </symbol>
  <symbol xmlns="http://www.w3.org/2000/svg" viewBox="0 0 32 32" id="three-dots-vertical">
    <path d="M16 13.8667C14.8267 13.8667 13.8667 14.8267 13.8667 16C13.8667 17.1734 14.8267 18.1333 16 18.1333C17.1734 18.1333 18.1334 17.1734 18.1334 16C18.1334 14.8267 17.1734 13.8667 16 13.8667Z" ></path>
    <path d="M16 22.3999C14.8267 22.3999 13.8667 23.3599 13.8667 24.5332C13.8667 25.7066 14.8267 26.6666 16 26.6666C17.1734 26.6666 18.1334 25.7066 18.1334 24.5332C18.1334 23.3599 17.1734 22.3999 16 22.3999Z" ></path>
    <path d="M16 9.59989C17.1734 9.59989 18.1334 8.63989 18.1334 7.46655C18.1334 6.29322 17.1734 5.33325 16 5.33325C14.8267 5.33325 13.8667 6.29322 13.8667 7.46655C13.8667 8.63989 14.8267 9.59989 16 9.59989Z" ></path>
  </symbol>
  <symbol xmlns="http://www.w3.org/2000/svg" viewBox="0 0 32 32" id="upper-arrow" width="14" height="8">
    <path d="M9.36164 14.191L15.0721 19.6212C15.1959 19.7412 15.3431 19.8365 15.5053 19.9015C15.6675 19.9665 15.8415 20 16.0172 20C16.1929 20 16.3669 19.9665 16.5291 19.9015C16.6914 19.8365 16.8386 19.7412 16.9623 19.6212L22.6063 14.191C22.731 14.072 22.83 13.9303 22.8976 13.7742C22.9652 13.6182 23 13.4508 23 13.2817C23 13.1126 22.9652 12.9453 22.8976 12.7892C22.83 12.6331 22.731 12.4915 22.6063 12.3724C22.3569 12.1339 22.0195 12 21.6678 12C21.3162 12 20.9788 12.1339 20.7294 12.3724L16.0172 16.9061L11.3051 12.3724C11.0571 12.1358 10.7225 12.0024 10.3733 12.001C10.1981 12 10.0244 12.0323 9.86226 12.0961C9.70008 12.1598 9.55257 12.2537 9.42819 12.3724C9.29897 12.4872 9.19467 12.6255 9.12132 12.7792C9.04797 12.933 9.00701 13.0993 9.00082 13.2684C8.99463 13.4375 9.02334 13.6061 9.08527 13.7644C9.14719 13.9228 9.24113 14.0678 9.36164 14.191Z" ></path>
  </symbol>
  <symbol xmlns="http://www.w3.org/2000/svg" viewBox="0 0 32 32" id="user-round">
    <path d="M15.9998 14.6667C19.3065 14.6667 21.9998 11.9734 21.9998 8.66675C21.9998 5.36008 19.3065 2.66675 15.9998 2.66675C12.6932 2.66675 9.99984 5.36008 9.99984 8.66675C9.99984 11.9734 12.6932 14.6667 15.9998 14.6667ZM15.9998 5.33341C17.8398 5.33341 19.3332 6.82675 19.3332 8.66675C19.3332 10.5067 17.8398 12.0001 15.9998 12.0001C14.1598 12.0001 12.6665 10.5067 12.6665 8.66675C12.6665 6.82675 14.1598 5.33341 15.9998 5.33341Z" ></path>
    <path d="M19.9998 16.0001H11.9998C9.05317 16.0001 6.6665 18.3867 6.6665 21.3334V22.6667C6.6665 25.6134 9.05317 28.0001 11.9998 28.0001H19.9998C22.9465 28.0001 25.3332 25.6134 25.3332 22.6667V21.3334C25.3332 18.3867 22.9465 16.0001 19.9998 16.0001ZM22.6665 22.6667C22.6665 24.1334 21.4665 25.3334 19.9998 25.3334H11.9998C10.5332 25.3334 9.33317 24.1334 9.33317 22.6667V21.3334C9.33317 19.8667 10.5332 18.6667 11.9998 18.6667H19.9998C21.4665 18.6667 22.6665 19.8667 22.6665 21.3334V22.6667Z" ></path>
  </symbol>
</svg>