<svg width="32" height="32" viewBox="0 0 32 32" fill="none" xmlns="http://www.w3.org/2000/svg">
<path d="M16 13.8667C14.8267 13.8667 13.8667 14.8267 13.8667 16C13.8667 17.1734 14.8267 18.1333 16 18.1333C17.1734 18.1333 18.1334 17.1734 18.1334 16C18.1334 14.8267 17.1734 13.8667 16 13.8667Z" fill="#676A71"/>
<path d="M16 22.3999C14.8267 22.3999 13.8667 23.3599 13.8667 24.5332C13.8667 25.7066 14.8267 26.6666 16 26.6666C17.1734 26.6666 18.1334 25.7066 18.1334 24.5332C18.1334 23.3599 17.1734 22.3999 16 22.3999Z" fill="#676A71"/>
<path d="M16 9.59989C17.1734 9.59989 18.1334 8.63989 18.1334 7.46655C18.1334 6.29322 17.1734 5.33325 16 5.33325C14.8267 5.33325 13.8667 6.29322 13.8667 7.46655C13.8667 8.63989 14.8267 9.59989 16 9.59989Z" fill="#676A71"/>
</svg>
