<svg width="32" height="32" viewBox="0 0 32 32" fill="none" xmlns="http://www.w3.org/2000/svg">
<path d="M15.9998 14.6667C19.3065 14.6667 21.9998 11.9734 21.9998 8.66675C21.9998 5.36008 19.3065 2.66675 15.9998 2.66675C12.6932 2.66675 9.99984 5.36008 9.99984 8.66675C9.99984 11.9734 12.6932 14.6667 15.9998 14.6667ZM15.9998 5.33341C17.8398 5.33341 19.3332 6.82675 19.3332 8.66675C19.3332 10.5067 17.8398 12.0001 15.9998 12.0001C14.1598 12.0001 12.6665 10.5067 12.6665 8.66675C12.6665 6.82675 14.1598 5.33341 15.9998 5.33341Z" fill="#676A71"/>
<path d="M19.9998 16.0001H11.9998C9.05317 16.0001 6.6665 18.3867 6.6665 21.3334V22.6667C6.6665 25.6134 9.05317 28.0001 11.9998 28.0001H19.9998C22.9465 28.0001 25.3332 25.6134 25.3332 22.6667V21.3334C25.3332 18.3867 22.9465 16.0001 19.9998 16.0001ZM22.6665 22.6667C22.6665 24.1334 21.4665 25.3334 19.9998 25.3334H11.9998C10.5332 25.3334 9.33317 24.1334 9.33317 22.6667V21.3334C9.33317 19.8667 10.5332 18.6667 11.9998 18.6667H19.9998C21.4665 18.6667 22.6665 19.8667 22.6665 21.3334V22.6667Z" fill="#676A71"/>
</svg>
